<?xml version="1.0" encoding="UTF-8" standalone="no"?>
<svg xmlns="http://www.w3.org/2000/svg" xmlns:xlink="http://www.w3.org/1999/xlink" width="100" height="100" viewBox="0 0 100 100"><g transform="translate(50 50) scale(0.69 0.69) rotate(180) translate(-50 -50)" style="fill:#FFFFFF"><svg fill="#FFFFFF" xmlns="http://www.w3.org/2000/svg" xmlns:xlink="http://www.w3.org/1999/xlink" version="1.1" x="0px" y="0px" viewBox="0 0 100 100" enable-background="new 0 0 100 100" xml:space="preserve"><g><g><rect x="14.259" y="78.474" width="71.482" height="8.489"></rect><path d="M91.123,23.479c-2.143,0-3.878,1.735-3.878,3.878c0,1.848,1.295,3.388,3.027,3.777L64.239,59.584L50.346,20.758    c1.977-0.178,3.531-1.82,3.531-3.843c0-2.142-1.735-3.878-3.878-3.878c-2.142,0-3.877,1.736-3.877,3.878    c0,2.024,1.556,3.667,3.533,3.843L35.761,59.584L9.728,31.133c1.731-0.389,3.027-1.929,3.027-3.777    c0-2.143-1.735-3.878-3.878-3.878C6.735,23.479,5,25.214,5,27.356c0,2.141,1.735,3.877,3.877,3.877    c0.04,0,0.077-0.011,0.117-0.012l5.122,44.752h71.769l5.122-44.752c0.04,0.001,0.077,0.012,0.117,0.012    c2.142,0,3.877-1.736,3.877-3.877C95,25.214,93.265,23.479,91.123,23.479z"></path></g></g></svg></g></svg>